<svg width="83" height="26" viewBox="0 0 83 26" fill="none" xmlns="http://www.w3.org/2000/svg">
<g filter="url(#filter0_b_324_7862)">
<rect width="83" height="26" rx="6" fill="black" fill-opacity="0.2"/>
<rect x="0.5" y="0.5" width="82" height="25" rx="5.5" stroke="black" stroke-opacity="0.3"/>
<path d="M10.4852 11.9191C10.3247 13.1473 10.2291 14.3832 10.1987 15.6215C11.8781 16.323 13.4859 17.1844 15.0002 18.194C16.5146 17.1844 18.1227 16.3229 19.8022 15.6215C19.7718 14.3832 19.6762 13.1473 19.5157 11.9191M19.5157 11.9191C20.0262 11.7476 20.5436 11.5889 21.0662 11.4443C19.1626 10.1097 17.1305 8.96853 15.0002 8.0376C12.8698 8.96873 10.8377 10.1101 8.93408 11.4448C9.45516 11.5887 9.97219 11.7469 10.4846 11.9191C12.0413 12.4425 13.5517 13.0946 15.0002 13.8686C16.4484 13.0945 17.9592 12.4425 19.5157 11.9191ZM11.9377 14.75C12.0537 14.75 12.165 14.7039 12.247 14.6219C12.3291 14.5398 12.3752 14.4285 12.3752 14.3125C12.3752 14.1965 12.3291 14.0852 12.247 14.0032C12.165 13.9211 12.0537 13.875 11.9377 13.875C11.8216 13.875 11.7104 13.9211 11.6283 14.0032C11.5463 14.0852 11.5002 14.1965 11.5002 14.3125C11.5002 14.4285 11.5463 14.5398 11.6283 14.6219C11.7104 14.7039 11.8216 14.75 11.9377 14.75ZM11.9377 14.75V12.6063C12.9274 11.991 13.9498 11.4298 15.0002 10.9251M10.9127 17.6626C11.2382 17.3379 11.4963 16.9521 11.6722 16.5273C11.8481 16.1026 11.9383 15.6473 11.9377 15.1875V14.3125" stroke="white" stroke-linecap="round" stroke-linejoin="round"/>
<path d="M26.8847 12.812C26.8847 11.996 27.0727 11.264 27.4487 10.616C27.8327 9.968 28.3487 9.464 28.9967 9.104C29.6527 8.736 30.3687 8.552 31.1447 8.552C32.0327 8.552 32.8207 8.772 33.5087 9.212C34.2047 9.644 34.7087 10.26 35.0207 11.06H33.3767C33.1607 10.62 32.8607 10.292 32.4767 10.076C32.0927 9.86 31.6487 9.752 31.1447 9.752C30.5927 9.752 30.1007 9.876 29.6687 10.124C29.2367 10.372 28.8967 10.728 28.6487 11.192C28.4087 11.656 28.2887 12.196 28.2887 12.812C28.2887 13.428 28.4087 13.968 28.6487 14.432C28.8967 14.896 29.2367 15.256 29.6687 15.512C30.1007 15.76 30.5927 15.884 31.1447 15.884C31.6487 15.884 32.0927 15.776 32.4767 15.56C32.8607 15.344 33.1607 15.016 33.3767 14.576H35.0207C34.7087 15.376 34.2047 15.992 33.5087 16.424C32.8207 16.856 32.0327 17.072 31.1447 17.072C30.3607 17.072 29.6447 16.892 28.9967 16.532C28.3487 16.164 27.8327 15.656 27.4487 15.008C27.0727 14.36 26.8847 13.628 26.8847 12.812ZM39.25 17.108C38.626 17.108 38.062 16.968 37.558 16.688C37.054 16.4 36.658 16 36.37 15.488C36.082 14.968 35.938 14.368 35.938 13.688C35.938 13.016 36.086 12.42 36.382 11.9C36.678 11.38 37.082 10.98 37.594 10.7C38.106 10.42 38.678 10.28 39.31 10.28C39.942 10.28 40.514 10.42 41.026 10.7C41.538 10.98 41.942 11.38 42.238 11.9C42.534 12.42 42.682 13.016 42.682 13.688C42.682 14.36 42.53 14.956 42.226 15.476C41.922 15.996 41.506 16.4 40.978 16.688C40.458 16.968 39.882 17.108 39.25 17.108ZM39.25 15.92C39.602 15.92 39.93 15.836 40.234 15.668C40.546 15.5 40.798 15.248 40.99 14.912C41.182 14.576 41.278 14.168 41.278 13.688C41.278 13.208 41.186 12.804 41.002 12.476C40.818 12.14 40.574 11.888 40.27 11.72C39.966 11.552 39.638 11.468 39.286 11.468C38.934 11.468 38.606 11.552 38.302 11.72C38.006 11.888 37.77 12.14 37.594 12.476C37.418 12.804 37.33 13.208 37.33 13.688C37.33 14.4 37.51 14.952 37.87 15.344C38.238 15.728 38.698 15.92 39.25 15.92ZM49.7823 10.388V17H48.4143V16.22C48.1983 16.492 47.9143 16.708 47.5623 16.868C47.2183 17.02 46.8503 17.096 46.4583 17.096C45.9383 17.096 45.4703 16.988 45.0543 16.772C44.6463 16.556 44.3223 16.236 44.0823 15.812C43.8503 15.388 43.7343 14.876 43.7343 14.276V10.388H45.0903V14.072C45.0903 14.664 45.2383 15.12 45.5343 15.44C45.8303 15.752 46.2343 15.908 46.7463 15.908C47.2583 15.908 47.6623 15.752 47.9583 15.44C48.2623 15.12 48.4143 14.664 48.4143 14.072V10.388H49.7823ZM52.7153 11.348C52.9153 11.012 53.1793 10.752 53.5073 10.568C53.8433 10.376 54.2393 10.28 54.6953 10.28V11.696H54.3473C53.8113 11.696 53.4033 11.832 53.1233 12.104C52.8513 12.376 52.7153 12.848 52.7153 13.52V17H51.3473V10.388H52.7153V11.348ZM58.1127 17.108C57.5927 17.108 57.1247 17.016 56.7087 16.832C56.3007 16.64 55.9767 16.384 55.7367 16.064C55.4967 15.736 55.3687 15.372 55.3527 14.972H56.7687C56.7927 15.252 56.9247 15.488 57.1647 15.68C57.4127 15.864 57.7207 15.956 58.0887 15.956C58.4727 15.956 58.7687 15.884 58.9767 15.74C59.1927 15.588 59.3007 15.396 59.3007 15.164C59.3007 14.916 59.1807 14.732 58.9407 14.612C58.7087 14.492 58.3367 14.36 57.8247 14.216C57.3287 14.08 56.9247 13.948 56.6127 13.82C56.3007 13.692 56.0287 13.496 55.7967 13.232C55.5727 12.968 55.4607 12.62 55.4607 12.188C55.4607 11.836 55.5647 11.516 55.7727 11.228C55.9807 10.932 56.2767 10.7 56.6607 10.532C57.0527 10.364 57.5007 10.28 58.0047 10.28C58.7567 10.28 59.3607 10.472 59.8167 10.856C60.2807 11.232 60.5287 11.748 60.5607 12.404H59.1927C59.1687 12.108 59.0487 11.872 58.8327 11.696C58.6167 11.52 58.3247 11.432 57.9567 11.432C57.5967 11.432 57.3207 11.5 57.1287 11.636C56.9367 11.772 56.8407 11.952 56.8407 12.176C56.8407 12.352 56.9047 12.5 57.0327 12.62C57.1607 12.74 57.3167 12.836 57.5007 12.908C57.6847 12.972 57.9567 13.056 58.3167 13.16C58.7967 13.288 59.1887 13.42 59.4927 13.556C59.8047 13.684 60.0727 13.876 60.2967 14.132C60.5207 14.388 60.6367 14.728 60.6447 15.152C60.6447 15.528 60.5407 15.864 60.3327 16.16C60.1247 16.456 59.8287 16.688 59.4447 16.856C59.0687 17.024 58.6247 17.108 58.1127 17.108ZM67.9429 13.532C67.9429 13.78 67.9269 14.004 67.8949 14.204H62.8429C62.8829 14.732 63.0789 15.156 63.4309 15.476C63.7829 15.796 64.2149 15.956 64.7269 15.956C65.4629 15.956 65.9829 15.648 66.2869 15.032H67.7629C67.5629 15.64 67.1989 16.14 66.6709 16.532C66.1509 16.916 65.5029 17.108 64.7269 17.108C64.0949 17.108 63.5269 16.968 63.0229 16.688C62.5269 16.4 62.1349 16 61.8469 15.488C61.5669 14.968 61.4269 14.368 61.4269 13.688C61.4269 13.008 61.5629 12.412 61.8349 11.9C62.1149 11.38 62.5029 10.98 62.9989 10.7C63.5029 10.42 64.0789 10.28 64.7269 10.28C65.3509 10.28 65.9069 10.416 66.3949 10.688C66.8829 10.96 67.2629 11.344 67.5349 11.84C67.8069 12.328 67.9429 12.892 67.9429 13.532ZM66.5149 13.1C66.5069 12.596 66.3269 12.192 65.9749 11.888C65.6229 11.584 65.1869 11.432 64.6669 11.432C64.1949 11.432 63.7909 11.584 63.4549 11.888C63.1189 12.184 62.9189 12.588 62.8549 13.1H66.5149ZM71.4491 17.108C70.9291 17.108 70.4611 17.016 70.0451 16.832C69.6371 16.64 69.3131 16.384 69.0731 16.064C68.8331 15.736 68.7051 15.372 68.6891 14.972H70.1051C70.1291 15.252 70.2611 15.488 70.5011 15.68C70.7491 15.864 71.0571 15.956 71.4251 15.956C71.8091 15.956 72.1051 15.884 72.3131 15.74C72.5291 15.588 72.6371 15.396 72.6371 15.164C72.6371 14.916 72.5171 14.732 72.2771 14.612C72.0451 14.492 71.6731 14.36 71.1611 14.216C70.6651 14.08 70.2611 13.948 69.9491 13.82C69.6371 13.692 69.3651 13.496 69.1331 13.232C68.9091 12.968 68.7971 12.62 68.7971 12.188C68.7971 11.836 68.9011 11.516 69.1091 11.228C69.3171 10.932 69.6131 10.7 69.9971 10.532C70.3891 10.364 70.8371 10.28 71.3411 10.28C72.0931 10.28 72.6971 10.472 73.1531 10.856C73.6171 11.232 73.8651 11.748 73.8971 12.404H72.5291C72.5051 12.108 72.3851 11.872 72.1691 11.696C71.9531 11.52 71.6611 11.432 71.2931 11.432C70.9331 11.432 70.6571 11.5 70.4651 11.636C70.2731 11.772 70.1771 11.952 70.1771 12.176C70.1771 12.352 70.2411 12.5 70.3691 12.62C70.4971 12.74 70.6531 12.836 70.8371 12.908C71.0211 12.972 71.2931 13.056 71.6531 13.16C72.1331 13.288 72.5251 13.42 72.8291 13.556C73.1411 13.684 73.4091 13.876 73.6331 14.132C73.8571 14.388 73.9731 14.728 73.9811 15.152C73.9811 15.528 73.8771 15.864 73.6691 16.16C73.4611 16.456 73.1651 16.688 72.7811 16.856C72.4051 17.024 71.9611 17.108 71.4491 17.108Z" fill="white"/>
</g>
<defs>
<filter id="filter0_b_324_7862" x="-12" y="-12" width="107" height="50" filterUnits="userSpaceOnUse" color-interpolation-filters="sRGB">
<feFlood flood-opacity="0" result="BackgroundImageFix"/>
<feGaussianBlur in="BackgroundImageFix" stdDeviation="6"/>
<feComposite in2="SourceAlpha" operator="in" result="effect1_backgroundBlur_324_7862"/>
<feBlend mode="normal" in="SourceGraphic" in2="effect1_backgroundBlur_324_7862" result="shape"/>
</filter>
</defs>
</svg>
